<?xml version="1.0" ?>
<!-- Uploaded to: SVG Repo, www.svgrepo.com, Generator: SVG Repo Mixer Tools -->
<svg width="800px" height="800px" viewBox="0 0 64 64" id="Layer_1" version="1.1" xml:space="preserve" xmlns="http://www.w3.org/2000/svg" xmlns:xlink="http://www.w3.org/1999/xlink">
<style type="text/css">
	.st0{fill:#FFFFFF;}
	.st1{fill:#101820;}
</style>
<g>
<g>
<circle class="st0" cx="32" cy="32" r="32"/>
</g>
<g>
<path class="st1" d="M17,14.5h-5c-0.276,0-0.5-0.224-0.5-0.5s0.224-0.5,0.5-0.5h5c0.276,0,0.5,0.224,0.5,0.5S17.276,14.5,17,14.5z    "/>
</g>
<g>
<path class="st1" d="M24,51.5c-0.276,0-0.5-0.224-0.5-0.5V33c0-0.276,0.224-0.5,0.5-0.5s0.5,0.224,0.5,0.5v18    C24.5,51.276,24.276,51.5,24,51.5z"/>
</g>
<g>
<path class="st1" d="M22,51.5c-0.276,0-0.5-0.224-0.5-0.5V33c0-0.276,0.224-0.5,0.5-0.5s0.5,0.224,0.5,0.5v18    C22.5,51.276,22.276,51.5,22,51.5z"/>
</g>
<g>
<path class="st1" d="M30,51.5c-0.276,0-0.5-0.224-0.5-0.5V33c0-0.276,0.224-0.5,0.5-0.5s0.5,0.224,0.5,0.5v18    C30.5,51.276,30.276,51.5,30,51.5z"/>
</g>
<g>
<path class="st1" d="M28,51.5c-0.276,0-0.5-0.224-0.5-0.5V33c0-0.276,0.224-0.5,0.5-0.5s0.5,0.224,0.5,0.5v18    C28.5,51.276,28.276,51.5,28,51.5z"/>
</g>
<g>
<path class="st1" d="M36,51.5c-0.276,0-0.5-0.224-0.5-0.5V33c0-0.276,0.224-0.5,0.5-0.5s0.5,0.224,0.5,0.5v18    C36.5,51.276,36.276,51.5,36,51.5z"/>
</g>
<g>
<path class="st1" d="M34,51.5c-0.276,0-0.5-0.224-0.5-0.5V33c0-0.276,0.224-0.5,0.5-0.5s0.5,0.224,0.5,0.5v18    C34.5,51.276,34.276,51.5,34,51.5z"/>
</g>
<g>
<path class="st1" d="M42,51.5c-0.276,0-0.5-0.224-0.5-0.5V33c0-0.276,0.224-0.5,0.5-0.5s0.5,0.224,0.5,0.5v18    C42.5,51.276,42.276,51.5,42,51.5z"/>
</g>
<g>
<path class="st1" d="M40,51.5c-0.276,0-0.5-0.224-0.5-0.5V33c0-0.276,0.224-0.5,0.5-0.5s0.5,0.224,0.5,0.5v18    C40.5,51.276,40.276,51.5,40,51.5z"/>
</g>
<g>
<path class="st1" d="M48,51.5c-0.276,0-0.5-0.224-0.5-0.5V33c0-0.276,0.224-0.5,0.5-0.5s0.5,0.224,0.5,0.5v18    C48.5,51.276,48.276,51.5,48,51.5z"/>
</g>
<g>
<path class="st1" d="M45,51.5c-0.276,0-0.5-0.224-0.5-0.5V33c0-0.276,0.224-0.5,0.5-0.5s0.5,0.224,0.5,0.5v18    C45.5,51.276,45.276,51.5,45,51.5z"/>
</g>
<g>
<path class="st1" d="M19,51.5c-0.276,0-0.5-0.224-0.5-0.5V33c0-0.276,0.224-0.5,0.5-0.5s0.5,0.224,0.5,0.5v18    C19.5,51.276,19.276,51.5,19,51.5z"/>
</g>
<g>
<path class="st1" d="M16,51.5c-0.276,0-0.5-0.224-0.5-0.5V33c0-0.276,0.224-0.5,0.5-0.5s0.5,0.224,0.5,0.5v18    C16.5,51.276,16.276,51.5,16,51.5z"/>
</g>
<g>
<path class="st1" d="M48,31.5H16c-0.276,0-0.5-0.224-0.5-0.5v-4c0-0.276,0.224-0.5,0.5-0.5h32c0.276,0,0.5,0.224,0.5,0.5v4    C48.5,31.276,48.276,31.5,48,31.5z M16.5,30.5h31v-3h-31V30.5z"/>
</g>
<g>
<path class="st1" d="M48,21.5c-0.276,0-0.5-0.224-0.5-0.5v-1.5H41c-0.276,0-0.5-0.224-0.5-0.5s0.224-0.5,0.5-0.5h7    c0.276,0,0.5,0.224,0.5,0.5v2C48.5,21.276,48.276,21.5,48,21.5z"/>
</g>
<g>
<path class="st1" d="M16,21.5c-0.276,0-0.5-0.224-0.5-0.5v-2c0-0.276,0.224-0.5,0.5-0.5h7c0.276,0,0.5,0.224,0.5,0.5    s-0.224,0.5-0.5,0.5h-6.5V21C16.5,21.276,16.276,21.5,16,21.5z"/>
</g>
<g>
<path class="st1" d="M49,27.5H15c-0.189,0-0.362-0.107-0.447-0.276l-1-2c-0.078-0.155-0.069-0.339,0.022-0.486    S13.827,24.5,14,24.5h36c0.173,0,0.334,0.09,0.426,0.237c0.091,0.147,0.099,0.332,0.021,0.486l-1,2    C49.362,27.393,49.189,27.5,49,27.5z M15.309,26.5h33.382l0.5-1H14.809L15.309,26.5z"/>
</g>
<g>
<path class="st1" d="M50,25.5H14c-0.276,0-0.5-0.224-0.5-0.5v-2c0-0.276,0.224-0.5,0.5-0.5h36c0.276,0,0.5,0.224,0.5,0.5v2    C50.5,25.276,50.276,25.5,50,25.5z M14.5,24.5h35v-1h-35V24.5z"/>
</g>
<g>
<path class="st1" d="M49,31.5H15c-0.276,0-0.5-0.224-0.5-0.5s0.224-0.5,0.5-0.5h34c0.276,0,0.5,0.224,0.5,0.5S49.276,31.5,49,31.5    z"/>
</g>
<g>
<path class="st1" d="M51,23.5H13c-0.276,0-0.5-0.224-0.5-0.5s0.224-0.5,0.5-0.5h38c0.276,0,0.5,0.224,0.5,0.5S51.276,23.5,51,23.5    z"/>
</g>
<g>
<path class="st1" d="M39,23.5H25c-0.276,0-0.5-0.224-0.5-0.5v-4c0-0.276,0.224-0.5,0.5-0.5h14c0.276,0,0.5,0.224,0.5,0.5v4    C39.5,23.276,39.276,23.5,39,23.5z M25.5,22.5h13v-3h-13V22.5z"/>
</g>
<g>
<path class="st1" d="M25,21.5h-6c-0.276,0-0.5-0.224-0.5-0.5s0.224-0.5,0.5-0.5h6c0.276,0,0.5,0.224,0.5,0.5S25.276,21.5,25,21.5z    "/>
</g>
<g>
<path class="st1" d="M45,21.5h-6c-0.276,0-0.5-0.224-0.5-0.5s0.224-0.5,0.5-0.5h6c0.276,0,0.5,0.224,0.5,0.5S45.276,21.5,45,21.5z    "/>
</g>
<g>
<path class="st1" d="M48,29.5H16c-0.276,0-0.5-0.224-0.5-0.5s0.224-0.5,0.5-0.5h32c0.276,0,0.5,0.224,0.5,0.5S48.276,29.5,48,29.5    z"/>
</g>
<g>
<path class="st1" d="M19,31.5c-0.276,0-0.5-0.224-0.5-0.5v-2c0-0.276,0.224-0.5,0.5-0.5s0.5,0.224,0.5,0.5v2    C19.5,31.276,19.276,31.5,19,31.5z"/>
</g>
<g>
<path class="st1" d="M21,31.5c-0.276,0-0.5-0.224-0.5-0.5v-2c0-0.276,0.224-0.5,0.5-0.5s0.5,0.224,0.5,0.5v2    C21.5,31.276,21.276,31.5,21,31.5z"/>
</g>
<g>
<path class="st1" d="M23,31.5c-0.276,0-0.5-0.224-0.5-0.5v-2c0-0.276,0.224-0.5,0.5-0.5s0.5,0.224,0.5,0.5v2    C23.5,31.276,23.276,31.5,23,31.5z"/>
</g>
<g>
<path class="st1" d="M25,31.5c-0.276,0-0.5-0.224-0.5-0.5v-2c0-0.276,0.224-0.5,0.5-0.5s0.5,0.224,0.5,0.5v2    C25.5,31.276,25.276,31.5,25,31.5z"/>
</g>
<g>
<path class="st1" d="M27,31.5c-0.276,0-0.5-0.224-0.5-0.5v-2c0-0.276,0.224-0.5,0.5-0.5s0.5,0.224,0.5,0.5v2    C27.5,31.276,27.276,31.5,27,31.5z"/>
</g>
<g>
<path class="st1" d="M29,31.5c-0.276,0-0.5-0.224-0.5-0.5v-2c0-0.276,0.224-0.5,0.5-0.5s0.5,0.224,0.5,0.5v2    C29.5,31.276,29.276,31.5,29,31.5z"/>
</g>
<g>
<path class="st1" d="M31,31.5c-0.276,0-0.5-0.224-0.5-0.5v-2c0-0.276,0.224-0.5,0.5-0.5s0.5,0.224,0.5,0.5v2    C31.5,31.276,31.276,31.5,31,31.5z"/>
</g>
<g>
<path class="st1" d="M33,31.5c-0.276,0-0.5-0.224-0.5-0.5v-2c0-0.276,0.224-0.5,0.5-0.5s0.5,0.224,0.5,0.5v2    C33.5,31.276,33.276,31.5,33,31.5z"/>
</g>
<g>
<path class="st1" d="M35,31.5c-0.276,0-0.5-0.224-0.5-0.5v-2c0-0.276,0.224-0.5,0.5-0.5s0.5,0.224,0.5,0.5v2    C35.5,31.276,35.276,31.5,35,31.5z"/>
</g>
<g>
<path class="st1" d="M37,31.5c-0.276,0-0.5-0.224-0.5-0.5v-2c0-0.276,0.224-0.5,0.5-0.5s0.5,0.224,0.5,0.5v2    C37.5,31.276,37.276,31.5,37,31.5z"/>
</g>
<g>
<path class="st1" d="M39,31.5c-0.276,0-0.5-0.224-0.5-0.5v-2c0-0.276,0.224-0.5,0.5-0.5s0.5,0.224,0.5,0.5v2    C39.5,31.276,39.276,31.5,39,31.5z"/>
</g>
<g>
<path class="st1" d="M41,31.5c-0.276,0-0.5-0.224-0.5-0.5v-2c0-0.276,0.224-0.5,0.5-0.5s0.5,0.224,0.5,0.5v2    C41.5,31.276,41.276,31.5,41,31.5z"/>
</g>
<g>
<path class="st1" d="M43,31.5c-0.276,0-0.5-0.224-0.5-0.5v-2c0-0.276,0.224-0.5,0.5-0.5s0.5,0.224,0.5,0.5v2    C43.5,31.276,43.276,31.5,43,31.5z"/>
</g>
<g>
<path class="st1" d="M45,31.5c-0.276,0-0.5-0.224-0.5-0.5v-2c0-0.276,0.224-0.5,0.5-0.5s0.5,0.224,0.5,0.5v2    C45.5,31.276,45.276,31.5,45,31.5z"/>
</g>
<g>
<path class="st1" d="M39,19.5H25c-0.189,0-0.362-0.107-0.447-0.276l-1-2c-0.078-0.155-0.069-0.339,0.022-0.486    S23.827,16.5,24,16.5h16c0.173,0,0.334,0.09,0.426,0.237c0.091,0.147,0.099,0.332,0.021,0.486l-1,2    C39.362,19.393,39.189,19.5,39,19.5z M25.309,18.5h13.382l0.5-1H24.809L25.309,18.5z"/>
</g>
<g>
<path class="st1" d="M32,10.5c-0.128,0-0.256-0.049-0.354-0.146l-1-1c-0.195-0.195-0.195-0.512,0-0.707s0.512-0.195,0.707,0    L32,9.293l0.646-0.646c0.195-0.195,0.512-0.195,0.707,0s0.195,0.512,0,0.707l-1,1C32.256,10.451,32.128,10.5,32,10.5z"/>
</g>
<g>
<path class="st1" d="M31,11.5h-2c-0.276,0-0.5-0.224-0.5-0.5s0.224-0.5,0.5-0.5h2c0.276,0,0.5,0.224,0.5,0.5S31.276,11.5,31,11.5z    "/>
</g>
<g>
<path class="st1" d="M29,17.5c-0.276,0-0.5-0.224-0.5-0.5v-2c0-0.276,0.224-0.5,0.5-0.5s0.5,0.224,0.5,0.5v2    C29.5,17.276,29.276,17.5,29,17.5z"/>
</g>
<g>
<path class="st1" d="M31,17.5c-0.276,0-0.5-0.224-0.5-0.5v-2c0-0.276,0.224-0.5,0.5-0.5s0.5,0.224,0.5,0.5v2    C31.5,17.276,31.276,17.5,31,17.5z"/>
</g>
<g>
<path class="st1" d="M27,17.5h-2c-0.276,0-0.5-0.224-0.5-0.5v-4c0-0.276,0.224-0.5,0.5-0.5h2c0.276,0,0.5,0.224,0.5,0.5v1    c0,0.276-0.224,0.5-0.5,0.5s-0.5-0.224-0.5-0.5v-0.5h-1v3h1V16c0-0.276,0.224-0.5,0.5-0.5s0.5,0.224,0.5,0.5v1    C27.5,17.276,27.276,17.5,27,17.5z"/>
</g>
<g>
<path class="st1" d="M39,17.5h-2c-0.276,0-0.5-0.224-0.5-0.5v-1c0-0.276,0.224-0.5,0.5-0.5s0.5,0.224,0.5,0.5v0.5h1v-3h-1V14    c0,0.276-0.224,0.5-0.5,0.5s-0.5-0.224-0.5-0.5v-1c0-0.276,0.224-0.5,0.5-0.5h2c0.276,0,0.5,0.224,0.5,0.5v4    C39.5,17.276,39.276,17.5,39,17.5z"/>
</g>
<g>
<path class="st1" d="M30,14.5c-0.128,0-0.256-0.049-0.354-0.146l-1-1c-0.195-0.195-0.195-0.512,0-0.707s0.512-0.195,0.707,0    L30,13.293l0.646-0.646c0.195-0.195,0.512-0.195,0.707,0s0.195,0.512,0,0.707l-1,1C30.256,14.451,30.128,14.5,30,14.5z"/>
</g>
<g>
<path class="st1" d="M35,11.5h-2c-0.276,0-0.5-0.224-0.5-0.5s0.224-0.5,0.5-0.5h2c0.276,0,0.5,0.224,0.5,0.5S35.276,11.5,35,11.5z    "/>
</g>
<g>
<path class="st1" d="M33,17.5c-0.276,0-0.5-0.224-0.5-0.5v-2c0-0.276,0.224-0.5,0.5-0.5s0.5,0.224,0.5,0.5v2    C33.5,17.276,33.276,17.5,33,17.5z"/>
</g>
<g>
<path class="st1" d="M35,17.5c-0.276,0-0.5-0.224-0.5-0.5v-2c0-0.276,0.224-0.5,0.5-0.5s0.5,0.224,0.5,0.5v2    C35.5,17.276,35.276,17.5,35,17.5z"/>
</g>
<g>
<path class="st1" d="M34,14.5c-0.128,0-0.256-0.049-0.354-0.146l-1-1c-0.195-0.195-0.195-0.512,0-0.707s0.512-0.195,0.707,0    L34,13.293l0.646-0.646c0.195-0.195,0.512-0.195,0.707,0s0.195,0.512,0,0.707l-1,1C34.256,14.451,34.128,14.5,34,14.5z"/>
</g>
<g>
<path class="st1" d="M27,21.5c-0.276,0-0.5-0.224-0.5-0.5v-2c0-0.276,0.224-0.5,0.5-0.5s0.5,0.224,0.5,0.5v2    C27.5,21.276,27.276,21.5,27,21.5z"/>
</g>
<g>
<path class="st1" d="M29,21.5c-0.276,0-0.5-0.224-0.5-0.5v-2c0-0.276,0.224-0.5,0.5-0.5s0.5,0.224,0.5,0.5v2    C29.5,21.276,29.276,21.5,29,21.5z"/>
</g>
<g>
<path class="st1" d="M31,21.5c-0.276,0-0.5-0.224-0.5-0.5v-2c0-0.276,0.224-0.5,0.5-0.5s0.5,0.224,0.5,0.5v2    C31.5,21.276,31.276,21.5,31,21.5z"/>
</g>
<g>
<path class="st1" d="M33,21.5c-0.276,0-0.5-0.224-0.5-0.5v-2c0-0.276,0.224-0.5,0.5-0.5s0.5,0.224,0.5,0.5v2    C33.5,21.276,33.276,21.5,33,21.5z"/>
</g>
<g>
<path class="st1" d="M35,21.5c-0.276,0-0.5-0.224-0.5-0.5v-2c0-0.276,0.224-0.5,0.5-0.5s0.5,0.224,0.5,0.5v2    C35.5,21.276,35.276,21.5,35,21.5z"/>
</g>
<g>
<path class="st1" d="M37,21.5c-0.276,0-0.5-0.224-0.5-0.5v-2c0-0.276,0.224-0.5,0.5-0.5s0.5,0.224,0.5,0.5v2    C37.5,21.276,37.276,21.5,37,21.5z"/>
</g>
<g>
<path class="st1" d="M14,38.5h-2c-0.041,0-0.082-0.005-0.121-0.015l-4-1c-0.268-0.067-0.431-0.338-0.364-0.606    c0.067-0.268,0.336-0.433,0.606-0.364l3.94,0.985H14c0.276,0,0.5,0.224,0.5,0.5S14.276,38.5,14,38.5z"/>
</g>
<g>
<path class="st1" d="M14,40.5h-2c-0.041,0-0.082-0.005-0.121-0.015l-4-1c-0.268-0.067-0.431-0.338-0.364-0.606    c0.067-0.269,0.336-0.432,0.606-0.364l3.94,0.985H14c0.276,0,0.5,0.224,0.5,0.5S14.276,40.5,14,40.5z"/>
</g>
<g>
<path class="st1" d="M12,51.5c-0.276,0-0.5-0.224-0.5-0.5V37c0-0.276,0.224-0.5,0.5-0.5s0.5,0.224,0.5,0.5v14    C12.5,51.276,12.276,51.5,12,51.5z"/>
</g>
<g>
<g>
<path class="st1" d="M10,51.5c-0.276,0-0.5-0.224-0.5-0.5V39.5c0-0.276,0.224-0.5,0.5-0.5s0.5,0.224,0.5,0.5V51     C10.5,51.276,10.276,51.5,10,51.5z"/>
</g>
</g>
<g>
<path class="st1" d="M52,38.5h-2c-0.276,0-0.5-0.224-0.5-0.5s0.224-0.5,0.5-0.5h1.938l3.94-0.985    c0.264-0.07,0.54,0.095,0.606,0.364c0.066,0.268-0.096,0.539-0.364,0.606l-4,1C52.082,38.495,52.041,38.5,52,38.5z"/>
</g>
<g>
<path class="st1" d="M52,40.5h-2c-0.276,0-0.5-0.224-0.5-0.5s0.224-0.5,0.5-0.5h1.938l3.94-0.985    c0.264-0.069,0.54,0.096,0.606,0.364c0.066,0.268-0.096,0.539-0.364,0.606l-4,1C52.082,40.495,52.041,40.5,52,40.5z"/>
</g>
<g>
<path class="st1" d="M52,51.5c-0.276,0-0.5-0.224-0.5-0.5V37c0-0.276,0.224-0.5,0.5-0.5s0.5,0.224,0.5,0.5v14    C52.5,51.276,52.276,51.5,52,51.5z"/>
</g>
<g>
<g>
<path class="st1" d="M54,51.5c-0.276,0-0.5-0.224-0.5-0.5V39.5c0-0.276,0.224-0.5,0.5-0.5s0.5,0.224,0.5,0.5V51     C54.5,51.276,54.276,51.5,54,51.5z"/>
</g>
</g>
<g>
<path class="st1" d="M47.732,11.5c-0.276,0-0.5-0.224-0.5-0.5c0-0.827-0.673-1.5-1.5-1.5c-0.534,0-1.032,0.287-1.3,0.75    c-0.139,0.24-0.445,0.322-0.683,0.182c-0.239-0.138-0.321-0.444-0.183-0.683C44.013,8.979,44.843,8.5,45.732,8.5    c1.379,0,2.5,1.122,2.5,2.5C48.232,11.276,48.009,11.5,47.732,11.5z"/>
</g>
<g>
<path class="st1" d="M47.732,11.5c-0.276,0-0.5-0.224-0.5-0.5c0-1.378,1.121-2.5,2.5-2.5c0.89,0,1.72,0.479,2.165,1.249    c0.139,0.239,0.057,0.545-0.183,0.683c-0.236,0.138-0.544,0.057-0.683-0.182c-0.268-0.463-0.766-0.75-1.3-0.75    c-0.827,0-1.5,0.673-1.5,1.5C48.232,11.276,48.009,11.5,47.732,11.5z"/>
</g>
<g>
<path class="st1" d="M48.732,11.5h-2c-0.276,0-0.5-0.224-0.5-0.5s0.224-0.5,0.5-0.5h2c0.276,0,0.5,0.224,0.5,0.5    S49.009,11.5,48.732,11.5z"/>
</g>
</g>
</svg>