<?xml version="1.0" encoding="utf-8"?>
<!-- Uploaded to: SVG Repo, www.svgrepo.com, Generator: SVG Repo Mixer Tools -->
<!DOCTYPE svg PUBLIC "-//W3C//DTD SVG 1.1//EN" "http://www.w3.org/Graphics/SVG/1.1/DTD/svg11.dtd">
<svg fill="#000000" width="800px" height="800px" viewBox="0 0 1000 1000" version="1.1" xmlns="http://www.w3.org/2000/svg" xmlns:xlink="http://www.w3.org/1999/xlink"  enable-background="new 0 0 1000 1000" xml:space="preserve">

<g>
<g transform="translate(0.000000,494.000000) scale(0.100000,-0.100000)">
<path d="M4892.8,4624.8c-47.9-42.1-53.6-59.4-61.3-210.6c-3.8-91.9-15.3-166.6-23-166.6s-45.9,36.4-84.2,82.3c-139.8,166.6-139.8,166.6-220.2,166.6c-88.1,0-155.1-65.1-155.1-151.2c0-116.8,224-365.7,392.5-434.6c86.2-36.4,111-65.1,57.4-65.1c-49.8,0-124.4-90-124.4-147.4c0-67,45.9-135.9,107.2-158.9c40.2-15.3,45.9-30.6,45.9-111c0-82.3-5.7-93.8-61.3-126.4c-99.5-57.4-149.3-109.1-202.9-212.5c-46-88.1-49.8-116.8-57.4-396.3l-7.7-302.5h-160.8h-160.8V2695c0,294.8-1.9,306.3-53.6,405.9C3970,3395.7,3567.9,3451.2,3342,3210c-120.6-126.3-132.1-166.6-137.8-507.3l-7.7-312.1h-105.3c-90,0-113-7.7-160.8-55.5c-63.2-63.2-68.9-111-26.8-193.4c34.5-67,61.3-74.7,287.2-82.3l172.3-3.8l5.7-157l5.7-158.9l-1591-3.8l-1592.9-5.7l-45.9-53.6c-59.4-70.8-59.4-155.1,1.9-214.4c38.3-40.2,65.1-47.9,162.7-47.9c91.9,0,114.9-5.7,114.9-30.6c0-47.9,107.2-141.7,162.7-141.7c55.5,0,162.7,93.8,162.7,141.7c0,28.7,124.4,30.6,1307.6,26.8l1305.7-5.7l5.7-157l5.7-158.9l-1591-3.8l-1592.9-5.7l-45.9-53.6c-59.4-70.8-59.4-155.1,1.9-214.4c38.3-40.2,65.1-47.9,162.7-47.9h114.9V330.6c0-271.9,7.7-446.1,21.1-471c51.7-95.7-176.1-91.9,4554.6-91.9s4502.9-3.8,4554.6,91.9c13.4,24.9,21,199.1,21,471v432.7h114.9c97.6,0,124.5,7.7,162.7,47.9c61.3,59.4,61.3,143.6,1.9,214.4l-45.9,53.6l-1592.9,5.7l-1591,3.8l5.7,158.9l5.7,157l1307.6,5.7c1277,3.8,1305.7,3.8,1305.7-32.5c0-49.8,105.3-135.9,166.6-135.9c51.7,0,158.9,93.8,158.9,141.7c0,24.9,23,30.6,114.9,30.6c97.6,0,124.5,7.7,162.7,47.9c61.3,59.4,61.3,143.6,1.9,214.4l-45.9,53.6l-1592.9,5.7l-1591,3.8l5.7,158.9l5.7,157l172.3,3.8c225.9,7.7,252.7,15.3,287.2,82.3c42.1,82.3,36.4,130.2-26.8,193.4c-49.8,47.9-70.8,55.5-162.7,55.5h-107.2v277.6c0,229.7-5.7,292.9-38.3,379.1c-40.2,107.2-139.8,218.3-243.1,270c-225.9,113-530.3,9.6-645.2-220.2c-47.9-95.7-49.8-114.9-49.8-404v-302.5h-160.8h-160.8l-7.7,302.5c-7.6,279.5-11.5,308.2-59.3,398.2c-49.8,97.6-135.9,185.7-218.3,224c-36.4,17.2-44,34.5-44,113c0,80.4,5.7,95.7,46,111c61.3,23,107.2,91.9,107.2,158.9c0,57.4-74.7,147.4-124.4,147.4c-53.6,0-28.7,28.7,57.4,65.1c168.5,68.9,392.5,317.8,392.5,434.6c0,86.2-67,151.2-155.1,151.2c-80.4,0-99.6-13.4-224-170.4c-34.5-42.1-70.8-78.5-78.5-78.5c-9.6,0-21.1,74.7-24.9,166.6c-7.6,151.2-13.4,168.5-61.3,210.6c-28.7,23-76.6,44-107.2,44C4969.4,4668.9,4921.5,4647.8,4892.8,4624.8z M3761.3,3018.5c82.3-42.1,88.1-70.8,90-354.2v-273.8h-162.7h-162.7v269.9v270l55.5,55.5C3640.7,3045.4,3694.3,3054.9,3761.3,3018.5z M5067,3022.4c80.4-30.6,105.3-120.6,105.3-392.5v-239.3H5000h-172.3v239.3c0,264.2,24.9,361.8,99.6,392.5C4986.6,3045.4,5007.6,3045.4,5067,3022.4z M6411,2995.6c53.6-45.9,53.6-45.9,59.3-325.5l5.7-279.5h-162.7h-164.6v273.8c0,283.3,5.7,312.1,86.2,354.2C6296.1,3053,6353.6,3045.4,6411,2995.6z M6301.9,1576.9v-488.2H5000H3698.1v488.2v488.2H5000h1301.9V1576.9z M1404.5,560.3c5.7-197.2,7.7-202.9,61.3-250.8c45.9-38.3,68.9-45.9,124.4-36.4c111,17.2,124.4,45.9,135.9,275.7l9.6,204.9l317.8,5.7l319.7,3.8l7.7-202.9c5.7-195.3,9.6-204.8,59.3-248.9c30.6-24.9,74.7-45.9,101.5-45.9c128.3,0,180,95.7,180,335v162.7l321.6-3.8l319.7-5.7l9.6-206.8c9.6-189.5,13.4-212.5,55.5-245.1c61.3-49.8,141.7-45.9,206.8,9.6c51.7,44,53.6,53.6,59.3,248.9l7.7,202.9h323.6h323.5V568c1.9-204.8,11.5-239.3,90-279.5c67-36.4,120.6-26.8,180,32.5c53.6,55.5,55.5,61.3,55.5,248.9v193.4H5000h325.5V569.9c0-187.6,1.9-193.4,55.5-248.9c59.3-59.4,112.9-68.9,180-32.5c78.5,40.2,88.1,74.7,90,279.5v195.3h323.6H6298l7.7-202.9c5.7-197.2,7.6-202.9,61.3-250.8c45.9-38.3,68.9-45.9,124.4-36.4c111,17.2,124.4,45.9,135.9,275.7l9.6,204.9l317.8,5.7l319.7,3.8l7.7-202.9c5.7-195.3,9.6-204.8,59.3-248.9c30.6-24.9,74.7-45.9,101.5-45.9c128.3,0,180,95.7,180,335v162.7l321.6-3.8l319.7-5.7l9.6-206.8c9.6-189.5,13.4-212.5,55.5-245.1c61.3-49.8,141.7-45.9,206.8,9.6c51.7,44,53.6,53.6,59.3,248.9l7.7,202.9l317.8-3.8l319.7-5.7l5.7-319.7l3.8-321.6H5000H749.8v325.5v325.5h323.6h323.5L1404.5,560.3z"/>
<path d="M313.3-601.8c-47.9-49.8-55.5-157-15.3-208.7c13.4-19.1,47.9-42.1,74.7-51.7l51.7-21.1v-1790.1v-1790.1h-95.7c-114.9,0-180-28.7-208.7-90c-34.5-74.7-24.9-120.6,34.5-180l55.5-55.5H5000h4790.1l55.5,55.5c59.4,59.3,68.9,105.3,34.5,180c-28.7,61.3-93.8,90-208.7,90h-95.7v1790.1c0,1688.6,1.9,1792,34.5,1803.5c118.7,42.1,160.8,189.5,74.7,269.9c-44,42.1-55.5,42.1-603.1,42.1c-530.3,0-560.9-1.9-597.3-38.3c-86.2-86.2-63.2-214.4,47.9-260.4l67-26.8v-1790.1v-1790.1h-248.9h-248.9v1792v1790.1l57.4,21.1c82.3,28.7,124.4,112.9,95.7,199.1c-11.5,36.4-38.3,74.7-57.4,84.2c-47.9,24.9-1120,24.9-1167.9,0c-19.1-9.6-46-47.9-57.4-84.2c-28.7-86.2,13.4-170.4,95.7-199.1l57.4-21.1v-1790.1v-1792h-248.9h-248.9v1790.1v1790.1l67,26.8c76.6,32.5,113,105.3,95.7,187.6c-24.9,107.2-42.1,111-650.9,111h-559l-40.2-44c-80.4-86.2-40.2-225.9,78.5-268c30.6-11.5,32.5-114.9,32.5-1803.5v-1790.1H5000h-650.9v1790.1c0,1688.6,1.9,1792,34.5,1803.5c118.7,42.1,160.8,189.5,74.7,269.9c-44,42.1-55.5,42.1-599.2,42.1c-616.5,0-628-1.9-650.9-124.4c-15.3-82.3,23-147.4,105.3-181.9l59.4-23v-1788.1v-1788.2h-248.9h-248.9v1790.1v1790.1l65.1,26.8c109.1,45.9,130.2,201,34.5,271.9c-40.2,30.6-1114.3,38.3-1169.8,7.7c-19.1-9.6-45.9-44-59.4-76.6c-34.5-80.4,3.8-168.5,90-202.9l63.2-26.8v-1790.1v-1790.1h-248.9h-248.9v1790.1v1790.1l67,26.8c111,45.9,134,174.2,47.9,260.4c-36.4,36.4-67,38.3-599.2,38.3H353.5L313.3-601.8z M1075.2-2673.3v-1790.1H912.5H749.8v1790.1v1790.1h162.7h162.7V-2673.3z M2549.4-2673.3v-1790.1h-162.7h-162.7v1790.1v1790.1h162.7h162.7V-2673.3z M4023.6-2673.3v-1790.1h-162.7h-162.7v1790.1v1790.1h162.7h162.7V-2673.3z M6301.9-2673.3v-1790.1h-162.7h-162.7v1790.1v1790.1h162.7h162.7V-2673.3z M7776-2673.3v-1790.1h-162.7h-162.7v1790.1v1790.1h162.7H7776V-2673.3z M9250.2-2673.3v-1790.1h-162.7h-162.7v1790.1v1790.1h162.7h162.7V-2673.3z"/>
</g>
</g>
</svg>